{
	"asset":{
		"generator":"Khronos glTF Blender I/O v4.1.63",
		"version":"2.0"
	},
	"extensionsUsed":[
		"KHR_materials_emissive_strength"
	],
	"scene":0,
	"scenes":[
		{
			"name":"Scene",
			"nodes":[
				16
			]
		}
	],
	"nodes":[
		{
			"mesh":0,
			"name":"Object_10"
		},
		{
			"mesh":1,
			"name":"Object_11"
		},
		{
			"mesh":2,
			"name":"Object_12"
		},
		{
			"mesh":3,
			"name":"Object_13"
		},
		{
			"mesh":4,
			"name":"Object_14"
		},
		{
			"mesh":5,
			"name":"Object_15"
		},
		{
			"mesh":6,
			"name":"Object_16"
		},
		{
			"mesh":7,
			"name":"Object_2"
		},
		{
			"mesh":8,
			"name":"Object_3"
		},
		{
			"mesh":9,
			"name":"Object_4"
		},
		{
			"mesh":10,
			"name":"Object_5"
		},
		{
			"mesh":11,
			"name":"Object_6"
		},
		{
			"mesh":12,
			"name":"Object_7"
		},
		{
			"mesh":13,
			"name":"Object_8"
		},
		{
			"mesh":14,
			"name":"Object_9"
		},
		{
			"children":[
				0,
				1,
				2,
				3,
				4,
				5,
				6,
				7,
				8,
				9,
				10,
				11,
				12,
				13,
				14
			],
			"name":"rex_master.obj.cleaner.materialmerger.gles"
		},
		{
			"children":[
				15
			],
			"name":"Sketchfab_model",
			"rotation":[
				-0.70710688829422,
				0,
				0,
				0.7071066498756409
			],
			"scale":[
				0.004488120786845684,
				0.004488121252506971,
				0.004488121252506971
			]
		}
	],
	"materials":[
		{
			"doubleSided":true,
			"emissiveFactor":[
				0.5333349704742432,
				0.5333349704742432,
				0.5333349704742432
			],
			"emissiveTexture":{
				"index":0
			},
			"name":"RexFace-material",
			"pbrMetallicRoughness":{
				"baseColorFactor":[
					0,
					0,
					0,
					1
				]
			}
		},
		{
			"doubleSided":true,
			"name":"RexFaceNoShadowCast-material",
			"pbrMetallicRoughness":{}
		},
		{
			"doubleSided":true,
			"name":"MRexHelmetParts-material",
			"pbrMetallicRoughness":{}
		},
		{
			"doubleSided":true,
			"emissiveTexture":{
				"index":1
			},
			"name":"MRexBody-material",
			"pbrMetallicRoughness":{}
		},
		{
			"doubleSided":true,
			"emissiveFactor":[
				1,
				1,
				1
			],
			"emissiveTexture":{
				"index":2
			},
			"extensions":{
				"KHR_materials_emissive_strength":{
					"emissiveStrength":10
				}
			},
			"name":"MRexBodyParts-material",
			"pbrMetallicRoughness":{
				"baseColorFactor":[
					0,
					0,
					0,
					1
				]
			}
		},
		{
			"alphaMode":"BLEND",
			"doubleSided":true,
			"emissiveFactor":[
				1,
				1,
				1
			],
			"emissiveTexture":{
				"index":3
			},
			"extensions":{
				"KHR_materials_emissive_strength":{
					"emissiveStrength":10
				}
			},
			"name":"PneumaCoreCrystal-material",
			"pbrMetallicRoughness":{
				"baseColorFactor":[
					0,
					0,
					0,
					1
				]
			}
		},
		{
			"doubleSided":true,
			"emissiveFactor":[
				1,
				1,
				1
			],
			"emissiveTexture":{
				"index":4
			},
			"name":"RexEye-material",
			"pbrMetallicRoughness":{
				"baseColorFactor":[
					0,
					0,
					0,
					1
				]
			}
		},
		{
			"alphaMode":"BLEND",
			"doubleSided":true,
			"name":"MRexHelmetGlass-material",
			"pbrMetallicRoughness":{}
		},
		{
			"doubleSided":true,
			"name":"RexNosetip-material",
			"pbrMetallicRoughness":{}
		},
		{
			"alphaMode":"BLEND",
			"doubleSided":true,
			"emissiveFactor":[
				0.47238239645957947,
				0.47238239645957947,
				0.47238239645957947
			],
			"emissiveTexture":{
				"index":5
			},
			"name":"RexHairFringe-material",
			"pbrMetallicRoughness":{
				"baseColorFactor":[
					0,
					0,
					0,
					1
				]
			}
		},
		{
			"doubleSided":true,
			"name":"RexNeck-material",
			"pbrMetallicRoughness":{}
		},
		{
			"doubleSided":true,
			"emissiveFactor":[
				1,
				1,
				1
			],
			"emissiveTexture":{
				"index":6
			},
			"extensions":{
				"KHR_materials_emissive_strength":{
					"emissiveStrength":10
				}
			},
			"name":"RexCoreCrystal-material",
			"pbrMetallicRoughness":{
				"baseColorFactor":[
					0,
					0,
					0,
					1
				]
			}
		},
		{
			"doubleSided":true,
			"name":"RexCoreCrystalEdge-material",
			"pbrMetallicRoughness":{}
		},
		{
			"doubleSided":true,
			"emissiveFactor":[
				0.5942875146865845,
				0.5942875146865845,
				0.5942875146865845
			],
			"emissiveTexture":{
				"index":7
			},
			"name":"RexHair-material",
			"pbrMetallicRoughness":{
				"baseColorFactor":[
					0,
					0,
					0,
					1
				]
			}
		},
		{
			"alphaMode":"BLEND",
			"doubleSided":true,
			"name":"RexTears-material",
			"pbrMetallicRoughness":{}
		}
	],
	"meshes":[
		{
			"name":"Object_8",
			"primitives":[
				{
					"attributes":{
						"POSITION":0,
						"NORMAL":1,
						"TEXCOORD_0":2
					},
					"indices":3,
					"material":0
				}
			]
		},
		{
			"name":"Object_9",
			"primitives":[
				{
					"attributes":{
						"POSITION":4,
						"NORMAL":5,
						"TEXCOORD_0":6
					},
					"indices":7,
					"material":1
				}
			]
		},
		{
			"name":"Object_10",
			"primitives":[
				{
					"attributes":{
						"POSITION":8,
						"NORMAL":9,
						"TEXCOORD_0":10
					},
					"indices":11,
					"material":2
				}
			]
		},
		{
			"name":"Object_11",
			"primitives":[
				{
					"attributes":{
						"POSITION":12,
						"NORMAL":13,
						"TEXCOORD_0":14
					},
					"indices":15,
					"material":3
				}
			]
		},
		{
			"name":"Object_12",
			"primitives":[
				{
					"attributes":{
						"POSITION":16,
						"NORMAL":17,
						"TEXCOORD_0":18
					},
					"indices":19,
					"material":4
				}
			]
		},
		{
			"name":"Object_13",
			"primitives":[
				{
					"attributes":{
						"POSITION":20,
						"NORMAL":21,
						"TEXCOORD_0":22
					},
					"indices":23,
					"material":5
				}
			]
		},
		{
			"name":"Object_14",
			"primitives":[
				{
					"attributes":{
						"POSITION":24,
						"NORMAL":25,
						"TEXCOORD_0":26
					},
					"indices":27,
					"material":6
				}
			]
		},
		{
			"name":"Object_0",
			"primitives":[
				{
					"attributes":{
						"POSITION":28,
						"NORMAL":29,
						"TEXCOORD_0":30
					},
					"indices":31,
					"material":7
				}
			]
		},
		{
			"name":"Object_1",
			"primitives":[
				{
					"attributes":{
						"POSITION":32,
						"NORMAL":33,
						"TEXCOORD_0":34
					},
					"indices":35,
					"material":8
				}
			]
		},
		{
			"name":"Object_2",
			"primitives":[
				{
					"attributes":{
						"POSITION":36,
						"NORMAL":37,
						"TEXCOORD_0":38
					},
					"indices":39,
					"material":9
				}
			]
		},
		{
			"name":"Object_3",
			"primitives":[
				{
					"attributes":{
						"POSITION":40,
						"NORMAL":41,
						"TEXCOORD_0":42
					},
					"indices":43,
					"material":10
				}
			]
		},
		{
			"name":"Object_4",
			"primitives":[
				{
					"attributes":{
						"POSITION":44,
						"NORMAL":45,
						"TEXCOORD_0":46
					},
					"indices":47,
					"material":11
				}
			]
		},
		{
			"name":"Object_5",
			"primitives":[
				{
					"attributes":{
						"POSITION":48,
						"NORMAL":49,
						"TEXCOORD_0":50
					},
					"indices":51,
					"material":12
				}
			]
		},
		{
			"name":"Object_6",
			"primitives":[
				{
					"attributes":{
						"POSITION":52,
						"NORMAL":53,
						"TEXCOORD_0":54
					},
					"indices":55,
					"material":13
				}
			]
		},
		{
			"name":"Object_7",
			"primitives":[
				{
					"attributes":{
						"POSITION":56,
						"NORMAL":57,
						"TEXCOORD_0":58
					},
					"indices":59,
					"material":14
				}
			]
		}
	],
	"textures":[
		{
			"sampler":0,
			"source":0
		},
		{
			"sampler":0,
			"source":1
		},
		{
			"sampler":0,
			"source":2
		},
		{
			"sampler":0,
			"source":2
		},
		{
			"sampler":0,
			"source":3
		},
		{
			"sampler":0,
			"source":0
		},
		{
			"sampler":0,
			"source":2
		},
		{
			"sampler":0,
			"source":4
		}
	],
	"images":[
		{
			"mimeType":"image/png",
			"name":"Image_5",
			"uri":"Image_5.png"
		},
		{
			"mimeType":"image/png",
			"name":"Image_0",
			"uri":"Image_0.png"
		},
		{
			"mimeType":"image/png",
			"name":"Image_2",
			"uri":"Image_2.png"
		},
		{
			"mimeType":"image/png",
			"name":"Image_4",
			"uri":"Image_4.png"
		},
		{
			"mimeType":"image/png",
			"name":"Image_7",
			"uri":"Image_7.png"
		}
	],
	"accessors":[
		{
			"bufferView":0,
			"componentType":5126,
			"count":1216,
			"max":[
				70.6163101196289,
				-1.1642719507217407,
				1428.3951416015625
			],
			"min":[
				-106.065673828125,
				-137.91635131835938,
				1257.819091796875
			],
			"type":"VEC3"
		},
		{
			"bufferView":1,
			"componentType":5126,
			"count":1216,
			"type":"VEC3"
		},
		{
			"bufferView":2,
			"componentType":5126,
			"count":1216,
			"type":"VEC2"
		},
		{
			"bufferView":3,
			"componentType":5123,
			"count":5388,
			"type":"SCALAR"
		},
		{
			"bufferView":4,
			"componentType":5126,
			"count":450,
			"max":[
				38.38528060913086,
				-92.67236328125,
				1375.2611083984375
			],
			"min":[
				-73.83464813232422,
				-126.89031982421875,
				1310.376220703125
			],
			"type":"VEC3"
		},
		{
			"bufferView":5,
			"componentType":5126,
			"count":450,
			"type":"VEC3"
		},
		{
			"bufferView":6,
			"componentType":5126,
			"count":450,
			"type":"VEC2"
		},
		{
			"bufferView":7,
			"componentType":5123,
			"count":1344,
			"type":"SCALAR"
		},
		{
			"bufferView":8,
			"componentType":5126,
			"count":96,
			"max":[
				68.60440826416016,
				260.5838317871094,
				1217.0450439453125
			],
			"min":[
				-104.0535659790039,
				58.21677017211914,
				1059.364013671875
			],
			"type":"VEC3"
		},
		{
			"bufferView":9,
			"componentType":5126,
			"count":96,
			"type":"VEC3"
		},
		{
			"bufferView":10,
			"componentType":5126,
			"count":96,
			"type":"VEC2"
		},
		{
			"bufferView":11,
			"componentType":5123,
			"count":204,
			"type":"SCALAR"
		},
		{
			"bufferView":12,
			"componentType":5126,
			"count":9589,
			"max":[
				439.0453186035156,
				297.5008239746094,
				1291.9827880859375
			],
			"min":[
				-439.00982666015625,
				-297.30535888671875,
				0
			],
			"type":"VEC3"
		},
		{
			"bufferView":13,
			"componentType":5126,
			"count":9589,
			"type":"VEC3"
		},
		{
			"bufferView":14,
			"componentType":5126,
			"count":9589,
			"type":"VEC2"
		},
		{
			"bufferView":15,
			"componentType":5123,
			"count":35898,
			"type":"SCALAR"
		},
		{
			"bufferView":16,
			"componentType":5126,
			"count":2634,
			"max":[
				414.43231201171875,
				65.50592803955078,
				1304.283447265625
			],
			"min":[
				-432.33880615234375,
				-219.54428100585938,
				17.7819881439209
			],
			"type":"VEC3"
		},
		{
			"bufferView":17,
			"componentType":5126,
			"count":2634,
			"type":"VEC3"
		},
		{
			"bufferView":18,
			"componentType":5126,
			"count":2634,
			"type":"VEC2"
		},
		{
			"bufferView":19,
			"componentType":5123,
			"count":8838,
			"type":"SCALAR"
		},
		{
			"bufferView":20,
			"componentType":5126,
			"count":1088,
			"max":[
				1.6592769622802734,
				-93.31917572021484,
				1182.45068359375
			],
			"min":[
				-37.187686920166016,
				-132.92813110351562,
				1111.5975341796875
			],
			"type":"VEC3"
		},
		{
			"bufferView":21,
			"componentType":5126,
			"count":1088,
			"type":"VEC3"
		},
		{
			"bufferView":22,
			"componentType":5126,
			"count":1088,
			"type":"VEC2"
		},
		{
			"bufferView":23,
			"componentType":5123,
			"count":1416,
			"type":"SCALAR"
		},
		{
			"bufferView":24,
			"componentType":5126,
			"count":257,
			"max":[
				37.289268493652344,
				-99.80632019042969,
				1360.248046875
			],
			"min":[
				-72.73863983154297,
				-113.02332305908203,
				1322.7830810546875
			],
			"type":"VEC3"
		},
		{
			"bufferView":25,
			"componentType":5126,
			"count":257,
			"type":"VEC3"
		},
		{
			"bufferView":26,
			"componentType":5126,
			"count":257,
			"type":"VEC2"
		},
		{
			"bufferView":27,
			"componentType":5123,
			"count":906,
			"type":"SCALAR"
		},
		{
			"bufferView":28,
			"componentType":5126,
			"count":402,
			"max":[
				78.10443115234375,
				274.6328430175781,
				1237.3651123046875
			],
			"min":[
				-113.55359649658203,
				57.46177291870117,
				1047.420166015625
			],
			"type":"VEC3"
		},
		{
			"bufferView":29,
			"componentType":5126,
			"count":402,
			"type":"VEC3"
		},
		{
			"bufferView":30,
			"componentType":5126,
			"count":402,
			"type":"VEC2"
		},
		{
			"bufferView":31,
			"componentType":5123,
			"count":1596,
			"type":"SCALAR"
		},
		{
			"bufferView":32,
			"componentType":5126,
			"count":9,
			"max":[
				-17.423683166503906,
				-137.0663299560547,
				1314.6561279296875
			],
			"min":[
				-18.025684356689453,
				-137.73431396484375,
				1312.93310546875
			],
			"type":"VEC3"
		},
		{
			"bufferView":33,
			"componentType":5126,
			"count":9,
			"type":"VEC3"
		},
		{
			"bufferView":34,
			"componentType":5126,
			"count":9,
			"type":"VEC2"
		},
		{
			"bufferView":35,
			"componentType":5123,
			"count":24,
			"type":"SCALAR"
		},
		{
			"bufferView":36,
			"componentType":5126,
			"count":74,
			"max":[
				56.839298248291016,
				-1.1642719507217407,
				1428.55712890625
			],
			"min":[
				-92.28866577148438,
				-130.31634521484375,
				1270.1669921875
			],
			"type":"VEC3"
		},
		{
			"bufferView":37,
			"componentType":5126,
			"count":74,
			"type":"VEC3"
		},
		{
			"bufferView":38,
			"componentType":5126,
			"count":74,
			"type":"VEC2"
		},
		{
			"bufferView":39,
			"componentType":5123,
			"count":222,
			"type":"SCALAR"
		},
		{
			"bufferView":40,
			"componentType":5126,
			"count":134,
			"max":[
				53.38126754760742,
				15.696891784667969,
				1278.197998046875
			],
			"min":[
				-88.83063507080078,
				-119.46612548828125,
				1129.5186767578125
			],
			"type":"VEC3"
		},
		{
			"bufferView":41,
			"componentType":5126,
			"count":134,
			"type":"VEC3"
		},
		{
			"bufferView":42,
			"componentType":5126,
			"count":134,
			"type":"VEC2"
		},
		{
			"bufferView":43,
			"componentType":5123,
			"count":672,
			"type":"SCALAR"
		},
		{
			"bufferView":44,
			"componentType":5126,
			"count":94,
			"max":[
				-4.03773307800293,
				-99.03108978271484,
				1178.3585205078125
			],
			"min":[
				-31.41163444519043,
				-119.25708770751953,
				1142.0595703125
			],
			"type":"VEC3"
		},
		{
			"bufferView":45,
			"componentType":5126,
			"count":94,
			"type":"VEC3"
		},
		{
			"bufferView":46,
			"componentType":5126,
			"count":94,
			"type":"VEC2"
		},
		{
			"bufferView":47,
			"componentType":5123,
			"count":456,
			"type":"SCALAR"
		},
		{
			"bufferView":48,
			"componentType":5126,
			"count":104,
			"max":[
				-4.149693012237549,
				-99.16029357910156,
				1178.3779296875
			],
			"min":[
				-31.29959487915039,
				-119.3852767944336,
				1142.0789794921875
			],
			"type":"VEC3"
		},
		{
			"bufferView":49,
			"componentType":5126,
			"count":104,
			"type":"VEC3"
		},
		{
			"bufferView":50,
			"componentType":5126,
			"count":104,
			"type":"VEC2"
		},
		{
			"bufferView":51,
			"componentType":5123,
			"count":336,
			"type":"SCALAR"
		},
		{
			"bufferView":52,
			"componentType":5126,
			"count":1960,
			"max":[
				94.21732330322266,
				84.04573059082031,
				1529.09619140625
			],
			"min":[
				-125.33768463134766,
				-141.2923126220703,
				1279.656005859375
			],
			"type":"VEC3"
		},
		{
			"bufferView":53,
			"componentType":5126,
			"count":1960,
			"type":"VEC3"
		},
		{
			"bufferView":54,
			"componentType":5126,
			"count":1960,
			"type":"VEC2"
		},
		{
			"bufferView":55,
			"componentType":5123,
			"count":5616,
			"type":"SCALAR"
		},
		{
			"bufferView":56,
			"componentType":5126,
			"count":114,
			"max":[
				32.35728073120117,
				-101.60530853271484,
				1330.6611328125
			],
			"min":[
				-67.80664825439453,
				-108.78034210205078,
				1324.8450927734375
			],
			"type":"VEC3"
		},
		{
			"bufferView":57,
			"componentType":5126,
			"count":114,
			"type":"VEC3"
		},
		{
			"bufferView":58,
			"componentType":5126,
			"count":114,
			"type":"VEC2"
		},
		{
			"bufferView":59,
			"componentType":5123,
			"count":552,
			"type":"SCALAR"
		}
	],
	"bufferViews":[
		{
			"buffer":0,
			"byteLength":14592,
			"byteOffset":0,
			"target":34962
		},
		{
			"buffer":0,
			"byteLength":14592,
			"byteOffset":14592,
			"target":34962
		},
		{
			"buffer":0,
			"byteLength":9728,
			"byteOffset":29184,
			"target":34962
		},
		{
			"buffer":0,
			"byteLength":10776,
			"byteOffset":38912,
			"target":34963
		},
		{
			"buffer":0,
			"byteLength":5400,
			"byteOffset":49688,
			"target":34962
		},
		{
			"buffer":0,
			"byteLength":5400,
			"byteOffset":55088,
			"target":34962
		},
		{
			"buffer":0,
			"byteLength":3600,
			"byteOffset":60488,
			"target":34962
		},
		{
			"buffer":0,
			"byteLength":2688,
			"byteOffset":64088,
			"target":34963
		},
		{
			"buffer":0,
			"byteLength":1152,
			"byteOffset":66776,
			"target":34962
		},
		{
			"buffer":0,
			"byteLength":1152,
			"byteOffset":67928,
			"target":34962
		},
		{
			"buffer":0,
			"byteLength":768,
			"byteOffset":69080,
			"target":34962
		},
		{
			"buffer":0,
			"byteLength":408,
			"byteOffset":69848,
			"target":34963
		},
		{
			"buffer":0,
			"byteLength":115068,
			"byteOffset":70256,
			"target":34962
		},
		{
			"buffer":0,
			"byteLength":115068,
			"byteOffset":185324,
			"target":34962
		},
		{
			"buffer":0,
			"byteLength":76712,
			"byteOffset":300392,
			"target":34962
		},
		{
			"buffer":0,
			"byteLength":71796,
			"byteOffset":377104,
			"target":34963
		},
		{
			"buffer":0,
			"byteLength":31608,
			"byteOffset":448900,
			"target":34962
		},
		{
			"buffer":0,
			"byteLength":31608,
			"byteOffset":480508,
			"target":34962
		},
		{
			"buffer":0,
			"byteLength":21072,
			"byteOffset":512116,
			"target":34962
		},
		{
			"buffer":0,
			"byteLength":17676,
			"byteOffset":533188,
			"target":34963
		},
		{
			"buffer":0,
			"byteLength":13056,
			"byteOffset":550864,
			"target":34962
		},
		{
			"buffer":0,
			"byteLength":13056,
			"byteOffset":563920,
			"target":34962
		},
		{
			"buffer":0,
			"byteLength":8704,
			"byteOffset":576976,
			"target":34962
		},
		{
			"buffer":0,
			"byteLength":2832,
			"byteOffset":585680,
			"target":34963
		},
		{
			"buffer":0,
			"byteLength":3084,
			"byteOffset":588512,
			"target":34962
		},
		{
			"buffer":0,
			"byteLength":3084,
			"byteOffset":591596,
			"target":34962
		},
		{
			"buffer":0,
			"byteLength":2056,
			"byteOffset":594680,
			"target":34962
		},
		{
			"buffer":0,
			"byteLength":1812,
			"byteOffset":596736,
			"target":34963
		},
		{
			"buffer":0,
			"byteLength":4824,
			"byteOffset":598548,
			"target":34962
		},
		{
			"buffer":0,
			"byteLength":4824,
			"byteOffset":603372,
			"target":34962
		},
		{
			"buffer":0,
			"byteLength":3216,
			"byteOffset":608196,
			"target":34962
		},
		{
			"buffer":0,
			"byteLength":3192,
			"byteOffset":611412,
			"target":34963
		},
		{
			"buffer":0,
			"byteLength":108,
			"byteOffset":614604,
			"target":34962
		},
		{
			"buffer":0,
			"byteLength":108,
			"byteOffset":614712,
			"target":34962
		},
		{
			"buffer":0,
			"byteLength":72,
			"byteOffset":614820,
			"target":34962
		},
		{
			"buffer":0,
			"byteLength":48,
			"byteOffset":614892,
			"target":34963
		},
		{
			"buffer":0,
			"byteLength":888,
			"byteOffset":614940,
			"target":34962
		},
		{
			"buffer":0,
			"byteLength":888,
			"byteOffset":615828,
			"target":34962
		},
		{
			"buffer":0,
			"byteLength":592,
			"byteOffset":616716,
			"target":34962
		},
		{
			"buffer":0,
			"byteLength":444,
			"byteOffset":617308,
			"target":34963
		},
		{
			"buffer":0,
			"byteLength":1608,
			"byteOffset":617752,
			"target":34962
		},
		{
			"buffer":0,
			"byteLength":1608,
			"byteOffset":619360,
			"target":34962
		},
		{
			"buffer":0,
			"byteLength":1072,
			"byteOffset":620968,
			"target":34962
		},
		{
			"buffer":0,
			"byteLength":1344,
			"byteOffset":622040,
			"target":34963
		},
		{
			"buffer":0,
			"byteLength":1128,
			"byteOffset":623384,
			"target":34962
		},
		{
			"buffer":0,
			"byteLength":1128,
			"byteOffset":624512,
			"target":34962
		},
		{
			"buffer":0,
			"byteLength":752,
			"byteOffset":625640,
			"target":34962
		},
		{
			"buffer":0,
			"byteLength":912,
			"byteOffset":626392,
			"target":34963
		},
		{
			"buffer":0,
			"byteLength":1248,
			"byteOffset":627304,
			"target":34962
		},
		{
			"buffer":0,
			"byteLength":1248,
			"byteOffset":628552,
			"target":34962
		},
		{
			"buffer":0,
			"byteLength":832,
			"byteOffset":629800,
			"target":34962
		},
		{
			"buffer":0,
			"byteLength":672,
			"byteOffset":630632,
			"target":34963
		},
		{
			"buffer":0,
			"byteLength":23520,
			"byteOffset":631304,
			"target":34962
		},
		{
			"buffer":0,
			"byteLength":23520,
			"byteOffset":654824,
			"target":34962
		},
		{
			"buffer":0,
			"byteLength":15680,
			"byteOffset":678344,
			"target":34962
		},
		{
			"buffer":0,
			"byteLength":11232,
			"byteOffset":694024,
			"target":34963
		},
		{
			"buffer":0,
			"byteLength":1368,
			"byteOffset":705256,
			"target":34962
		},
		{
			"buffer":0,
			"byteLength":1368,
			"byteOffset":706624,
			"target":34962
		},
		{
			"buffer":0,
			"byteLength":912,
			"byteOffset":707992,
			"target":34962
		},
		{
			"buffer":0,
			"byteLength":1104,
			"byteOffset":708904,
			"target":34963
		}
	],
	"samplers":[
		{
			"magFilter":9729,
			"minFilter":9987
		}
	],
	"buffers":[
		{
			"byteLength":710008,
			"uri":"AI1.bin"
		}
	]
}
